<svg xmlns="http://www.w3.org/2000/svg" viewBox="0 0 80 80" width="50px" height="50px">
  <path d="M 18 10 C 13.594 10 10 13.594 10 18 L 10 62 C 10 66.406 13.594 70 18 70 L 62 70 C 66.406 70 70 66.406 70 62 L 70 18 C 70 13.593 66.406 10 62 10 L 18 10 z M 18 12 L 62 12 C 63.203722 12 64.318787 12.354349 65.255859 12.958984 L 63.484375 15.912109 C 63.166375 16.441109 63 17.046109 63 17.662109 C 63 18.845109 63.599562 19.926734 64.601562 20.552734 L 68 22.677734 L 68 26.216797 L 61.935547 22.146484 C 61.717547 22.003484 61.452312 21.964484 61.195312 22.021484 C 60.948313 22.088484 60.740469 22.257516 60.605469 22.478516 C 55.999469 29.997516 55.398469 31.575281 53.355469 35.613281 C 49.861469 42.412281 46.98825 50.396828 47.78125 53.423828 L 47.144531 54.478516 C 47.128531 54.504516 47.127281 54.533547 47.113281 54.560547 C 47.103281 54.580547 47.086125 54.596187 47.078125 54.617188 C 47.065125 54.649187 47.067641 54.686703 47.056641 54.720703 C 47.035641 54.791703 47.018672 54.859641 47.013672 54.931641 C 47.012672 54.953641 47 54.973094 47 54.996094 C 47 55.033094 47.017484 55.067516 47.021484 55.103516 C 47.029484 55.177516 47.042406 55.249313 47.066406 55.320312 C 47.073406 55.338313 47.071125 55.358953 47.078125 55.376953 C 47.091125 55.406953 47.117812 55.431938 47.132812 55.460938 C 47.164812 55.521937 47.197187 55.579813 47.242188 55.632812 C 47.260188 55.656813 47.268062 55.684031 47.289062 55.707031 C 47.323062 55.739031 47.369203 55.755203 47.408203 55.783203 C 47.436203 55.804203 47.452422 55.834516 47.482422 55.853516 C 47.510422 55.870516 47.542266 55.876625 47.572266 55.890625 C 47.601266 55.904625 47.628203 55.916734 47.658203 55.927734 C 47.770203 55.968734 47.885 55.996094 48 55.996094 L 48.001953 55.996094 L 48.003906 55.996094 C 48.121906 55.996094 48.234703 55.967734 48.345703 55.927734 C 48.370703 55.918734 48.393969 55.909437 48.417969 55.898438 C 48.517969 55.852438 48.612359 55.79675 48.693359 55.71875 C 48.698359 55.71375 48.707891 55.712031 48.712891 55.707031 C 48.726891 55.691031 48.731141 55.670297 48.744141 55.654297 C 48.783141 55.609297 48.825422 55.568625 48.857422 55.515625 L 49.365234 54.673828 C 52.254234 54.489828 57.689422 47.983453 62.857422 41.314453 C 65.082422 38.548453 65.505953 37.902781 68.001953 34.175781 L 68.001953 62 C 68.000953 65.326 65.326 68 62 68 L 18 68 C 14.674 68 12 65.326 12 62 L 12 18 C 12 14.674 14.674 12 18 12 z M 28.75 25.996094 A 1 1 0 0 0 28.75 27.996094 A 1 1 0 0 0 28.75 25.996094 z M 32.5 25.996094 A 1 1 0 0 0 32.5 27.996094 A 1 1 0 0 0 32.5 25.996094 z M 36.25 25.996094 A 1 1 0 0 0 36.25 27.996094 A 1 1 0 0 0 36.25 25.996094 z M 40 25.996094 A 1 1 0 0 0 40 27.996094 A 1 1 0 0 0 40 25.996094 z M 43.75 25.996094 A 1 1 0 0 0 43.75 27.996094 A 1 1 0 0 0 43.75 25.996094 z M 47.5 25.996094 A 1 1 0 0 0 47.5 27.996094 A 1 1 0 0 0 47.5 25.996094 z M 51.25 25.996094 A 1 1 0 0 0 51.25 27.996094 A 1 1 0 0 0 51.25 25.996094 z M 25.097656 26.001953 C 25.000156 25.991703 24.900781 25.995625 24.800781 26.015625 C 24.740781 26.026625 24.679141 26.045172 24.619141 26.076172 C 24.559141 26.096172 24.499453 26.127969 24.439453 26.167969 L 24.289062 26.287109 C 24.199063 26.387109 24.130078 26.497187 24.080078 26.617188 C 24.030078 26.737188 24 26.866094 24 26.996094 C 24 27.266094 24.099063 27.517031 24.289062 27.707031 C 24.389063 27.797031 24.499141 27.867969 24.619141 27.917969 C 24.739141 27.967969 24.87 27.996094 25 27.996094 C 25.13 27.996094 25.260859 27.967969 25.380859 27.917969 C 25.500859 27.867969 25.610938 27.797031 25.710938 27.707031 C 25.900938 27.517031 26 27.266094 26 26.996094 C 26 26.736094 25.890937 26.476109 25.710938 26.287109 C 25.610938 26.197109 25.510859 26.126172 25.380859 26.076172 C 25.290859 26.036172 25.195156 26.012203 25.097656 26.001953 z M 55 26.001953 C 54.87 26.001953 54.739141 26.025672 54.619141 26.076172 C 54.489141 26.126172 54.389063 26.197109 54.289062 26.287109 C 54.199062 26.387109 54.130078 26.497187 54.080078 26.617188 C 54.030078 26.737188 54 26.866094 54 26.996094 C 54 27.266094 54.099063 27.517031 54.289062 27.707031 C 54.389062 27.797031 54.499141 27.867969 54.619141 27.917969 C 54.739141 27.967969 54.87 27.996094 55 27.996094 C 55.13 27.996094 55.260859 27.967969 55.380859 27.917969 C 55.500859 27.867969 55.610938 27.797031 55.710938 27.707031 C 55.900937 27.517031 56 27.266094 56 26.996094 C 56 26.866094 55.969922 26.737188 55.919922 26.617188 C 55.869922 26.497187 55.800937 26.387109 55.710938 26.287109 C 55.620937 26.197109 55.510859 26.126172 55.380859 26.076172 C 55.260859 26.025672 55.13 26.001953 55 26.001953 z M 29 34.996094 A 1 1 0 0 0 29 36.996094 A 1 1 0 0 0 29 34.996094 z M 33 34.996094 A 1 1 0 0 0 33 36.996094 A 1 1 0 0 0 33 34.996094 z M 37 34.996094 A 1 1 0 0 0 37 36.996094 A 1 1 0 0 0 37 34.996094 z M 41 34.996094 A 1 1 0 0 0 41 36.996094 A 1 1 0 0 0 41 34.996094 z M 45 34.996094 A 1 1 0 0 0 45 36.996094 A 1 1 0 0 0 45 34.996094 z M 49 34.996094 A 1 1 0 0 0 49 36.996094 A 1 1 0 0 0 49 34.996094 z M 25 35.009766 C 24.7375 35.009766 24.474062 35.102109 24.289062 35.287109 C 24.109063 35.476109 24 35.736094 24 35.996094 C 24 36.266094 24.099062 36.517031 24.289062 36.707031 C 24.479063 36.896031 24.74 36.996094 25 36.996094 C 25.26 36.996094 25.520938 36.896031 25.710938 36.707031 C 25.900938 36.517031 26 36.266094 26 35.996094 C 26 35.736094 25.890938 35.476109 25.710938 35.287109 C 25.525937 35.102109 25.2625 35.009766 25 35.009766 z M 28.830078 43.996094 A 1 1 0 0 0 28.830078 45.996094 A 1 1 0 0 0 28.830078 43.996094 z M 32.669922 43.996094 A 1 1 0 0 0 32.669922 45.996094 A 1 1 0 0 0 32.669922 43.996094 z M 36.5 43.996094 A 1 1 0 0 0 36.5 45.996094 A 1 1 0 0 0 36.5 43.996094 z M 40.330078 43.996094 A 1 1 0 0 0 40.330078 45.996094 A 1 1 0 0 0 40.330078 43.996094 z M 44.169922 43.996094 A 1 1 0 0 0 44.169922 45.996094 A 1 1 0 0 0 44.169922 43.996094 z M 25 44.009766 C 24.74 44.009766 24.479062 44.102109 24.289062 44.287109 C 24.199063 44.387109 24.130078 44.487188 24.080078 44.617188 C 24.030078 44.737187 24 44.866094 24 44.996094 C 24 45.126094 24.030078 45.256953 24.080078 45.376953 C 24.130078 45.496953 24.199062 45.606031 24.289062 45.707031 C 24.479063 45.896031 24.73 45.996094 25 45.996094 C 25.13 45.996094 25.260859 45.967969 25.380859 45.917969 C 25.500859 45.867969 25.610938 45.797031 25.710938 45.707031 C 25.800937 45.606031 25.869688 45.496953 25.929688 45.376953 C 25.979688 45.256953 26 45.126094 26 44.996094 C 26 44.736094 25.890937 44.476109 25.710938 44.287109 C 25.520938 44.102109 25.26 44.009766 25 44.009766 z M 32.986328 52.238281 C 32.858828 52.214844 32.724844 52.216094 32.589844 52.246094 C 32.049844 52.355094 31.710313 52.895547 31.820312 53.435547 C 31.930312 53.906547 32.340781 54.226562 32.800781 54.226562 C 32.870781 54.226562 32.939766 54.216266 33.009766 54.197266 C 33.549766 54.087266 33.899297 53.547812 33.779297 53.007812 C 33.689297 52.602812 33.368828 52.308594 32.986328 52.238281 z M 36.568359 53.132812 C 36.317109 53.181438 36.084688 53.326641 35.929688 53.556641 C 35.619687 54.016641 35.739219 54.636266 36.199219 54.947266 C 36.369219 55.056266 36.559766 55.117188 36.759766 55.117188 C 37.079766 55.117188 37.389844 54.967734 37.589844 54.677734 C 37.899844 54.217734 37.770312 53.597109 37.320312 53.287109 C 37.090312 53.131609 36.819609 53.084187 36.568359 53.132812 z M 29.060547 54.042969 C 28.930234 54.044359 28.797422 54.071953 28.669922 54.126953 C 28.159922 54.336953 27.930625 54.9275 28.140625 55.4375 C 28.310625 55.8175 28.680547 56.037109 29.060547 56.037109 C 29.200547 56.037109 29.330938 56.016031 29.460938 55.957031 L 29.460938 55.96875 C 29.960938 55.74875 30.200469 55.158437 29.980469 54.648438 C 29.822969 54.265187 29.451484 54.038797 29.060547 54.042969 z M 25.097656 55.003906 C 24.806094 54.974844 24.499063 55.077109 24.289062 55.287109 C 24.199063 55.387109 24.130078 55.497187 24.080078 55.617188 C 24.030078 55.737187 24 55.866094 24 55.996094 C 24 56.126094 24.030078 56.256953 24.080078 56.376953 C 24.130078 56.496953 24.199062 56.606031 24.289062 56.707031 C 24.479063 56.896031 24.73 56.996094 25 56.996094 C 25.27 56.996094 25.520938 56.896031 25.710938 56.707031 C 25.900938 56.517031 26 56.266094 26 55.996094 C 26 55.866094 25.969922 55.737187 25.919922 55.617188 C 25.869922 55.497188 25.800938 55.387109 25.710938 55.287109 C 25.610937 55.197109 25.500859 55.126172 25.380859 55.076172 C 25.290859 55.036172 25.194844 55.013594 25.097656 55.003906 z M 40.220703 55.402344 C 39.832578 55.408016 39.468047 55.644094 39.310547 56.027344 C 39.100547 56.537344 39.339609 57.118125 39.849609 57.328125 C 39.979609 57.378125 40.100469 57.408203 40.230469 57.408203 C 40.620469 57.408203 41.000156 57.177109 41.160156 56.787109 C 41.370156 56.276109 41.119375 55.686563 40.609375 55.476562 C 40.481875 55.424062 40.350078 55.400453 40.220703 55.402344 z M 44.130859 55.886719 C 43.580859 55.996719 43.229844 56.516641 43.339844 57.056641 C 43.429844 57.536641 43.850312 57.867187 44.320312 57.867188 C 44.380313 57.867188 44.449531 57.857656 44.519531 57.847656 C 45.059531 57.738656 45.410781 57.217734 45.300781 56.677734 C 45.190781 56.127734 44.670859 55.776719 44.130859 55.886719 z" fill="#512BD4" />
</svg>